<svg xmlns="http://www.w3.org/2000/svg" viewBox="0 0 48 48" fill="#6b6b6a"><path d="M45,34a8.08,8.08,0,0,0-1.93.22l2.87-7.88a1,1,0,0,0-.49-1.23L43,23.88V17a1,1,0,0,0-1-1H39V13a1,1,0,0,0-1-1H36V11a1,1,0,0,0-2,0v1H32a1,1,0,0,0-1,1v3H28a1,1,0,0,0-1,1v6.88l-2.45,1.23a1,1,0,0,0-.49,1.23L27.21,35l-.22.12A5.14,5.14,0,0,1,24,36a5.14,5.14,0,0,1-3-.87,7.86,7.86,0,0,0-2-.88V30h2a1,1,0,0,0,1-1V25a1,1,0,0,0-1-1H3a1,1,0,0,0,0,2H20v2H3a1,1,0,0,0,0,2H4v4.06A10,10,0,0,0,3,34a1,1,0,0,0,0,2,5.14,5.14,0,0,1,3,.87A7.11,7.11,0,0,0,10,38a7.1,7.1,0,0,0,4-1.13A5.17,5.17,0,0,1,17,36a5.18,5.18,0,0,1,3,.87A7,7,0,0,0,24,38a7.14,7.14,0,0,0,4-1.13A5.12,5.12,0,0,1,31,36a5.18,5.18,0,0,1,3,.87A7,7,0,0,0,38,38a7.11,7.11,0,0,0,4-1.13A5.18,5.18,0,0,1,45,36a1,1,0,0,0,0-2ZM6,34.61V30H7v5.14H7C6.69,35,6.36,34.78,6,34.61Zm7,.52A5.17,5.17,0,0,1,10,36a7.23,7.23,0,0,1-1-.07V30h5v4.61C13.63,34.77,13.31,35,13,35.13Zm3-1.07V30h1v4h0C16.63,34,16.31,34,16,34.06ZM41,22.88l-5-2.5V18h5ZM33,14h4v2H33Zm-4,4h5v2.38l-5,2.5Zm6,4.12,8.76,4.38-.53,1.43L35.44,24.1a1,1,0,0,0-.88,0l-7.79,3.83-.53-1.43ZM31,34a7.64,7.64,0,0,0-1.94.23l-1.6-4.4L34,26.61v8A6.89,6.89,0,0,0,31,34Zm5,1.65v-9l6.54,3.22-2,5.57A5,5,0,0,1,38,36,5.07,5.07,0,0,1,36,35.65Z" data-name="Layer 6"/></svg>