<svg height="512" viewBox="0 0 512 512" width="512" xmlns="http://www.w3.org/2000/svg" fill="#6b6b6a"><g id="outline"><path d="m96 368h16v16h-16z"/><path d="m128 368h16v16h-16z"/><path d="m392 328h64v16h-64z"/><path d="m352 264h16v16h-16z"/><path d="m328 328h16v16h-16z"/><path d="m240 264a24 24 0 1 0 -24-24 24.027 24.027 0 0 0 24 24zm0-32a8 8 0 1 1 -8 8 8.009 8.009 0 0 1 8-8z"/><path d="m48 248h16v16h-16z"/><path d="m80 248h16v16h-16z"/><path d="m80 280h16v16h-16z"/><path d="m48 280h16v16h-16z"/><path d="m488 32h-208a8 8 0 0 0 -8 8v32a8 8 0 0 0 8 8h28.686l27.314 27.314v8.686a4 4 0 0 1 -8 0v-4a8 8 0 0 0 -16 0v4a20 20 0 0 0 40 0v-8.686l27.314-27.314h20.686v72h-159.992-.046a4.707 4.707 0 0 0 -.608.038 7.956 7.956 0 0 0 -3.185.937l-80.326 43.815-22.721-18.938a8 8 0 0 0 -5.122-1.852h-64c-.025 0-.042 0-.066 0a7.987 7.987 0 0 0 -5.591 2.34l-40 40a7.977 7.977 0 0 0 -2.343 5.66v240a8 8 0 0 0 8 8h456a8 8 0 0 0 8-8v-256a8 8 0 0 0 -3.562-6.656l-36.438-24.292v-97.052h40a8 8 0 0 0 8-8v-32a8 8 0 0 0 -8-8zm-48 32h-16l8-10.667zm-64 0 8-10.667 8 10.667zm-72-16h16l-8 10.667zm32 5.333 8 10.667h-16zm16-5.333h16l-8 10.667zm48 0h16l-8 10.667zm48 0h16l-8 10.667zm-160 5.333 8 10.667h-8zm56 39.354-12.686-12.687h25.372zm88 67.313h-9.578l-6.422-4.281v-11.719h16zm-88 272v24h-59.69l27-60.751a8 8 0 0 0 -7.31-11.249h-64a7.994 7.994 0 0 0 -3.578.845l-30.311 15.155h-30.111v-24h232v16h-24a8 8 0 0 0 -8 8v24h-24a8 8 0 0 0 -8 8zm-312-72v-128h80v104h-16a24 24 0 0 0 -48 0v24zm440-112v16h-56v16h56v16h-72v-48zm-136 48v-48h48v48zm24 64h-48v-48h48zm-24-128v-16h64v16zm-96-62.887 80 43.636v83.251h-16a8 8 0 0 0 -8 8v56h-16v-40a40 40 0 0 0 -80 0v40h-24v-16a8 8 0 0 0 -8-8h-8v-123.249zm24 190.887h-48v-40a24 24 0 0 1 48 0zm-120-24h-16v-104h16zm-80 8v-8a8 8 0 1 1 16 0h-8a8 8 0 0 0 -8 8zm16 8h80v48h-80zm-13.394 64h141.394a7.994 7.994 0 0 0 3.578-.845l30.311-15.155h49.8l-10.667 24h-212.13zm309.394-56v-48h96v48zm96-128h-24v-16h24zm-40 0h-16v-16h16zm-16-32v-24h1.578l14.422 9.615v14.385zm16-72h-16v-16h16zm-32 72h-69.959l-58.667-32h128.626zm-274.9-8 18.913 15.763c0 .08-.016.157-.016.237v8h-21.433l-33.6-24zm-60.238 2.449 30.174 21.551h-51.723zm-32.862 181.551h32v24h-8a8 8 0 0 0 -7.692 10.2l13.086 45.8h-29.394zm46.034 80-4.571-16h200.449l-7.112 16zm393.966 0h-112v-16h24a8 8 0 0 0 8-8v-24h24a8 8 0 0 0 8-8v-24h48zm-18.422-256h-5.578v-3.719zm-21.578-104h-16v-16h16zm40-32 8-10.667v10.667z"/></g></svg>