<svg id="_x33_0" enable-background="new 0 0 64 64" height="512" viewBox="0 0 64 64" width="512" xmlns="http://www.w3.org/2000/svg" fill="#6b6b6a"><g><circle cx="16" cy="6" r="1"/><path d="m13 17h.666l2.334-1.75 2.334 1.75h.666 1 1v-6h26v5h2v-5h2c1.103 0 2-.897 2-2v-6c0-1.103-.897-2-2-2h-35c-2.757 0-5 2.243-5 5v11h1zm0-2v-2l1.334 1zm12-6h-2l1-1.333zm.25-3 1.75-2.333 1.75 2.333-1.75 2.333zm4.75 1.667 1 1.333h-2zm1.25-1.667 1.75-2.333 1.75 2.333-1.75 2.333zm4.75 1.667 1 1.333h-2zm1.25-1.667 1.75-2.333 1.75 2.333-1.75 2.333zm4.75 1.667 1 1.333h-2zm1.25-1.667 1.75-2.333 1.75 2.333-1.75 2.333zm4.75 1.667 1 1.333h-2zm1.25-1.667 1.75-2.333v4.667zm-1.25-1.667-1-1.333h2zm-6 0-1-1.333h2zm-6 0-1-1.333h2zm-6 0-1-1.333h2zm-6 0-1-1.333h2zm-1.25 1.667-1.75 2.333v-4.666zm-9.084 5h4.668l-2.334 1.75zm4 3 1.334-1v2zm-4.666-8c0-1.654 1.346-3 3-3h3v6h-6z"/><path d="m15 27h10v10.586l1.414 1.414h2.586v-10c0-2.206-1.794-4-4-4h-18v2h6v6h-6v4h8z"/><path d="m11 19h10v4h-10z"/><path d="m17 29h6v8h-6z"/><path d="m7 29h4v2h-4z"/><path d="m60.168 39.09-1.354.902c-.988.659-2.139 1.008-3.328 1.008h-29.9l-2-2h-19.822c-.421 0-.764.343-.764.764 0 .068.009.135.026.197l1.374 5.039h38.71c1.263-1.235 2.988-2 4.889-2s3.627.765 4.889 2h8.112v-5.465c0-.401-.5-.666-.832-.445z"/><path d="m48 55c2.757 0 5-2.243 5-5s-2.243-5-5-5-5 2.243-5 5 2.243 5 5 5zm0-7c1.105 0 2 .895 2 2s-.895 2-2 2-2-.895-2-2 .895-2 2-2z"/><path d="m55 50c0 3.86-3.141 7-7 7s-7-3.14-7-7c0-1.075.251-2.089.685-3h-36.739l2.813 10.315c.592 2.17 2.575 3.685 4.824 3.685h33.417c7.934 0 14.431-6.195 14.949-14h-6.634c.434.911.685 1.925.685 3z"/><path d="m47 18h2v2h-2z"/><path d="m51 22h-6v-4h-4v14h14.001l-.001-14h-4z"/></g></svg>