<?xml version="1.0" encoding="iso-8859-1"?>
<!-- Generator: Adobe Illustrator 19.0.0, SVG Export Plug-In . SVG Version: 6.00 Build 0)  -->
<svg version="1.1" id="Capa_1" xmlns="http://www.w3.org/2000/svg" xmlns:xlink="http://www.w3.org/1999/xlink" x="0px" y="0px"
	 viewBox="0 0 480.007 480.007" style="enable-background:new 0 0 480.007 480.007;" xml:space="preserve" fill="#6b6b6a">
<g>
	<g>
		<g>
			<path d="M477.663,178.304l-13.656-13.656V143.96c-0.084-75.076-60.924-135.916-136-136h-16c-75.076,0.084-135.916,60.924-136,136
				v192c0.084,75.076,60.924,135.916,136,136h16c75.076-0.084,135.916-60.924,136-136v-20.688l13.656-13.656
				c1.5-1.5,2.344-3.534,2.344-5.656v-112C480.007,181.838,479.164,179.804,477.663,178.304z M448.007,335.96
				c-0.075,66.243-53.757,119.925-120,120h-16c-66.243-0.075-119.925-53.757-120-120v-192c0.075-66.243,53.757-119.925,120-120h16
				c66.243,0.075,119.925,53.757,120,120v16h-16v-16c-0.066-57.41-46.59-103.934-104-104h-16c-57.41,0.066-103.934,46.59-104,104
				v192c0.066,57.41,46.59,103.934,104,104h16c57.41-0.066,103.934-46.59,104-104v-16h16V335.96z M402.351,301.616l13.656,13.656
				v20.688c-0.057,48.577-39.423,87.943-88,88h-16c-48.577-0.057-87.943-39.423-88-88v-192c0.057-48.577,39.423-87.943,88-88h16
				c48.577,0.057,87.943,39.423,88,88v20.688l-13.656,13.656c-1.5,1.5-2.344,3.534-2.344,5.656v112
				C400.008,298.081,400.851,300.116,402.351,301.616z M464.007,292.648l-11.312,11.312h-25.376l-11.312-11.312V271.96h48V292.648z
				 M464.007,255.96h-48v-32h48V255.96z M464.007,207.96h-48v-20.688l11.312-11.312h25.376l11.312,11.312V207.96z"/>
			<rect x="432.007" y="279.96" width="16" height="16"/>
			<path d="M149.663,18.304c-3.386-3.011-8.539-2.835-11.712,0.4c-3.432,3.424-7.376,7.08-11.616,11.008
				c-2.52,2.336-5.24,4.904-7.936,7.448C106.657,7.12,72.786-7.713,42.746,4.029C20.396,12.765,5.666,34.284,5.607,58.28
				c0,2,0.096,4.104,0.288,6.192l9.408,89.184c-12.28,4.701-18.424,18.466-13.724,30.746c1.068,2.79,2.651,5.354,4.668,7.558
				c-8.32,9.044-8.32,22.956,0,32c-8.32,9.044-8.32,22.956,0,32c-8.32,9.044-8.32,22.956,0,32
				c-8.875,9.702-8.204,24.761,1.498,33.636c2.204,2.016,4.768,3.6,7.558,4.668l-9.408,89.184
				c-3.455,32.01,19.693,60.76,51.703,64.216c24.141,2.606,47.369-10.025,58.305-31.704c0.8,0.736,1.656,1.6,2.4,2.28
				c4.24,3.928,8.184,7.584,12,11.408c3.124,3.123,8.188,3.123,11.312,0l24-24c3.123-3.124,3.123-8.188,0-11.312l-3.68-3.68
				c-2.032-2.04-4.464-4.368-7.2-6.968c-13.952-12.772-26.717-26.784-38.136-41.864c-8.739-13.658-13.091-29.662-12.472-45.864
				c13.193-0.02,23.872-10.731,23.852-23.924c-0.009-5.95-2.238-11.683-6.252-16.076c8.32-9.044,8.32-22.956,0-32
				c8.32-9.044,8.32-22.956,0-32c8.32-9.044,8.32-22.956,0-32c8.875-9.702,8.204-24.761-1.498-33.636
				c-2.204-2.016-4.768-3.6-7.558-4.668l3-28.592c1.913-6.756,4.935-13.147,8.944-18.912c11.423-15.089,24.193-29.109,38.152-41.888
				c2.712-2.6,5.144-4.928,7.2-6.968l3.68-3.68c3.127-3.12,3.135-8.184,0.016-11.312L149.663,18.304z M64.007,15.96
				c21.632-0.002,39.797,16.281,42.152,37.784c0.189,1.459,0.288,2.929,0.296,4.4c0.011,1.545-0.071,3.089-0.248,4.624
				l-6.248,59.048c-2.453,9.864-3.745,19.98-3.848,30.144H81.175l9.112-90.864c1.389-14.514-9.252-27.406-23.766-28.794
				s-27.406,9.252-28.794,23.766c-0.16,1.672-0.16,3.356,0,5.029l9.416,90.864H31.207l-9.384-89.064
				c-0.152-1.512-0.216-3.104-0.216-4.616C21.652,34.894,40.622,15.96,64.007,15.96z M74.367,59.464l-6.2,61.784
				c-2.244,10.097-3.567,20.376-3.952,30.712h-1.008l-9.56-92.496c-0.503-5.722,3.727-10.768,9.449-11.271
				c5.722-0.503,10.768,3.727,11.271,9.449C74.421,58.248,74.421,58.857,74.367,59.464z M64.007,463.96
				c-23.417,0.018-42.415-18.95-42.433-42.367c-0.001-1.494,0.077-2.987,0.233-4.473l9.4-89.16h15.928l-9.392,90.816
				c-1.611,14.491,8.831,27.544,23.322,29.155c14.491,1.611,27.544-8.831,29.155-23.322c0.129-1.161,0.181-2.329,0.155-3.497
				c4.151,5.224,8.59,10.213,13.296,14.944C97.637,452.775,81.782,463.928,64.007,463.96z M74.407,420.456
				c0.503,5.722-3.727,10.768-9.449,11.271c-5.722,0.503-10.768-3.727-11.271-9.449c-0.053-0.606-0.053-1.216,0-1.823l6.456-62.4
				c2.625,11.98,6.697,23.596,12.128,34.592h-0.2L74.407,420.456z M143.727,427.16l0.032,0.032c1.784,1.72,3.448,3.312,4.952,4.8
				l-12.792,12.768c-2.12-2.016-4.376-4.096-6.712-6.264c-3.448-3.2-7.104-6.592-10.88-10.224
				C90.03,402.438,73.386,366.257,72.183,327.96h15.912c-0.585,19.546,4.852,38.8,15.576,55.152
				C115.667,398.973,129.074,413.716,143.727,427.16z M104.007,311.96h-80c-4.418,0-8-3.582-8-8s3.582-8,8-8h80c4.418,0,8,3.582,8,8
				S108.426,311.96,104.007,311.96z M104.007,279.96h-80c-4.418,0-8-3.582-8-8s3.582-8,8-8h80c4.418,0,8,3.582,8,8
				S108.426,279.96,104.007,279.96z M104.007,247.96h-80c-4.418,0-8-3.582-8-8s3.582-8,8-8h80c4.418,0,8,3.582,8,8
				S108.426,247.96,104.007,247.96z M104.007,215.96h-80c-4.418,0-8-3.582-8-8s3.582-8,8-8h80c4.418,0,8,3.582,8,8
				S108.426,215.96,104.007,215.96z M104.007,183.96h-80c-4.418,0-8-3.582-8-8s3.582-8,8-8h80c4.418,0,8,3.582,8,8
				S108.426,183.96,104.007,183.96z M151.727,52.76c-11.297,10.529-21.953,21.725-31.912,33.528l1.424-13.48l0.88-8.264
				c0.268-2.658,0.349-5.331,0.24-8c0-0.304,0-0.616,0-0.912c1.32-1.344,2.664-2.64,4-3.896c3.752-3.608,7.408-7,10.856-10.2
				c2.32-2.144,4.552-4.208,6.712-6.264l12.752,12.688C155.207,49.416,153.511,51.008,151.727,52.76z"/>
		</g>
	</g>
</g>
<g>
</g>
<g>
</g>
<g>
</g>
<g>
</g>
<g>
</g>
<g>
</g>
<g>
</g>
<g>
</g>
<g>
</g>
<g>
</g>
<g>
</g>
<g>
</g>
<g>
</g>
<g>
</g>
<g>
</g>
</svg>
