<svg height="512" viewBox="0 0 60 60" width="512" xmlns="http://www.w3.org/2000/svg" fill="#6b6b6a"><g id="027---Circular-Saw"><path id="Shape" d="m30 35c5.5228475 0 10-4.4771525 10-10s-4.4771525-10-10-10-10 4.4771525-10 10 4.4771525 10 10 10zm0-18c4.418278 0 8 3.581722 8 8s-3.581722 8-8 8-8-3.581722-8-8 3.581722-8 8-8z"/><path id="Shape" d="m35.3 36.86c-.4405307.1874384-.6864128.6608112-.5864341 1.1290042s.5177671.7998445.9964341.7909958c.1381183-.0020513.2743137-.0326953.4-.09 3.3789937-1.499597 6.080403-4.2010063 7.58-7.58.1075849-.2426524.1142845-.5181224.0186226-.7657178-.0956619-.2475955-.2858359-.4470007-.5286226-.5542822-.2426524-.1075849-.5181224-.1142845-.7657178-.0186226-.2475955.0956619-.4470007.2858359-.5542822.5286226-1.2926765 2.9278167-3.6321833 5.2673235-6.56 6.56z"/><path id="Shape" d="m24.7 13.14c.2427867-.1072815.4329607-.3066867.5286226-.5542822.0956619-.2475954.0889623-.5230654-.0186226-.7657178-.1072815-.2427867-.3066867-.4329607-.5542822-.5286226-.2475954-.0956619-.5230654-.0889623-.7657178.0186226-3.3789937 1.499597-6.080403 4.2010063-7.58 7.58-.2236753.5053405.0046595 1.0963246.51 1.32.5053405.2236753 1.0963247-.0046595 1.32-.51 1.2926765-2.9278167 3.6321833-5.2673235 6.56-6.56z"/><path id="Shape" d="m30 28c1.6568542 0 3-1.3431458 3-3s-1.3431458-3-3-3-3 1.3431458-3 3 1.3431458 3 3 3zm0-4c.5522847 0 1 .4477153 1 1s-.4477153 1-1 1-1-.4477153-1-1 .4477153-1 1-1z"/><circle id="Oval" cx="28" cy="11" r="1"/><path id="Shape" d="m57 40h-6.86c1.4187796-3.1289804.8194289-6.8039463-1.52-9.32.3017242-.9802542.5224656-1.983624.66-3 1.489054.1140406 2.8971354.7230358 4 1.73.2874982.2988614.7296239.3892668 1.1113619.22725.3817381-.1620167.6238685-.5428331.6086381-.95725-.0581104-3.6998248-2.4736818-6.9487683-6-8.07-.2493378-1.0065906-.583878-1.9901387-1-2.94 1.4346634-.676554 3.0565696-.8457964 4.6-.48.3751995-.0027703.7172758-.2153382.8859174-.5505133.1686415-.3351751.1354666-.7365486-.0859174-1.0394867-.45-.7-3.64-5.23-9.21-3.88-.6817124-.742464-1.4134207-1.4374199-2.19-2.08.8309523-1.23303944 2.0426287-2.16023529 3.45-2.64.3880563-.10825107.6732569-.43879497.7234959-.83852237.050239-.39972741-.1442962-.79056597-.4934959-.99147763-3.2419584-1.79732865-7.2703695-1.31794774-10 1.19-.9802542-.30172425-1.983624-.5224656-3-.66.1170483-1.48830897.7256385-2.895454 1.73-4 .2839605-.28959404.3648795-.72202234.2048476-1.09469926s-.5293155-.61178293-.9348476-.60530074c-3.7029695.04883519-6.9567448 2.46799898-8.07 6-1.0057207.25229522-1.989025.58675246-2.94 1-.6487731-1.35300863-.8282241-2.88361928-.51-4.35.1017992-.39254703-.0435546-.80770708-.3679803-1.05102632-.3244256-.24331923-.7636783-.2666141-1.1120197-.05897368-3.1786021 1.91430856-4.7710122 5.65143293-3.95 9.27-.7510575.7047204-1.4495861 1.4634095-2.09 2.27-1.2470142-.8514456-2.1756859-2.0931923-2.64-3.53-.1082511-.38805626-.438795-.67325695-.8385224-.72349591s-.7905659.14429617-.9914776.49349591c-1.80375076 3.2406946-1.32389392 7.2731051 1.19 10-.3017242.9802542-.5224656 1.983624-.66 3-1.48905403-.1140406-2.8971354-.7230358-4-1.73-.28959404-.2839605-.72202234-.3648795-1.09469926-.2048476s-.61178293.5293155-.60530074.9348476c.05811044 3.6998248 2.47368184 6.9487683 6 8.07.2493378 1.0065906.583878 1.9901387 1 2.94-1.3530086.6487731-2.88361928.8282241-4.35.51-.39254703-.1017992-.80770708.0435546-1.05102632.3679803-.24331923.3244256-.2666141.7636783-.05897368 1.1120197 1.89987385 3.1976775 5.6401273 4.8115949 9.27 4 .5747239.597251 1.1858943 1.1583255 1.83 1.68h-14.64c-1.65685425 0-3 1.3431458-3 3v1c0 1.6568542 1.34314575 3 3 3v12c0 .5522847.44771525 1 1 1h52c.5522847 0 1-.4477153 1-1v-12c1.6568542 0 3-1.3431458 3-3v-1c0-1.6568542-1.3431458-3-3-3zm-13.57 0c-.04-.26-.09-.52-.15-.78.743503-.6913446 1.4384825-1.4331015 2.08-2.22 1.0983233.7324651 1.9517488 1.7774759 2.45 3zm-23.51-.75c-3-2.14-3-3.41-4.11-3.06-2.0998458.7225369-4.4256948.2688057-6.1-1.19 1.4793997-.085713 2.9043235-.5884234 4.11-1.45.3820098-.2796475.5155725-.7888555.32-1.22-1.56-3.37-.9-4.45-2-4.7-2.18065878-.4365068-3.95955799-2.0092675-4.66-4.12 1.31970531.6741655 2.8052088.9553005 4.28.81.4763426-.050991.8496057-.432642.89-.91.1177978-1.3632094.4032864-2.7066852.85-4 .1327573-.3785373.0264647-.7997711-.27-1.07-1.6799659-1.4590655-2.4441759-3.709664-2-5.89.8093166 1.2410565 1.9582512 2.2233783 3.31 2.83.4357594.1914432.9460666.0492265 1.22-.34 2.14-3 3.4-3 3.06-4.1-.7369029-2.10690937-.286403-4.44721802 1.18-6.13.085713 1.47939971.5884234 2.90432347 1.45 4.11.2796475.38200976.7888555.51557253 1.22.32 3.41-1.56 4.45-.91 4.7-2 .4365068-2.18065878 2.0092675-3.95955799 4.12-4.66-.6741655 1.31970531-.9553005 2.80520883-.81 4.28.050991.4763426.432642.84960568.91.89 1.3633755.11668049 2.7069878.40219808 4 .85.3785373.13275735.7997711.0264647 1.07-.27 1.4590655-1.67996587 3.709664-2.44417589 5.89-2-1.2410565.8093166-2.2233783 1.95825123-2.83 3.31-.1934927.43344696-.0556099.9431956.33 1.22 3 2.14 3 3.4 4.11 3.06 2.1002415-.7399261 4.4363151-.2887695 6.11 1.18-1.4732372.0777401-2.8930194.5776145-4.09 1.44-.3820098.2796475-.5155725.7888555-.32 1.22 1.56 3.37.9 4.45 2 4.7 2.1806588.4365068 3.959558 2.0092675 4.66 4.12-1.3197053-.6741655-2.8052088-.9553005-4.28-.81-.4763426.050991-.8496057.432642-.89.91-.1177978 1.3632094-.4032864 2.7066852-.85 4-.1327573.3785373-.0264647.7997711.27 1.07 1.6799659 1.4590655 2.4441759 3.709664 2 5.89-.8093166-1.2410565-1.9582512-2.2233783-3.31-2.83-.4357594-.1914432-.9460666-.0492265-1.22.34-2.14 3-3.4 3-3.06 4.09.0843343.2687193.1511414.5426281.2.82h-21.06c-.0264793-.2827246-.1719078-.5408602-.4-.71zm35.08 18.75h-50v-11h50zm3-14c0 .5522847-.4477153 1-1 1h-54c-.55228475 0-1-.4477153-1-1v-1c0-.5522847.44771525-1 1-1h54c.5522847 0 1 .4477153 1 1z"/><path id="Shape" d="m8 51h2c.5522847 0 1-.4477153 1-1s-.4477153-1-1-1h-2c-.55228475 0-1 .4477153-1 1s.44771525 1 1 1z"/><path id="Shape" d="m14 51h17c.5522847 0 1-.4477153 1-1s-.4477153-1-1-1h-17c-.5522847 0-1 .4477153-1 1s.4477153 1 1 1z"/><path id="Shape" d="m48 2v4c0 .55228475.4477153 1 1 1s1-.44771525 1-1v-4c0-.55228475-.4477153-1-1-1s-1 .44771525-1 1z"/><path id="Shape" d="m53 11h4c.5522847 0 1-.4477153 1-1 0-.55228475-.4477153-1-1-1h-4c-.5522847 0-1 .44771525-1 1 0 .5522847.4477153 1 1 1z"/><path id="Shape" d="m55.71 4.71c.2536586-.25365856.3527236-.62337399.2598781-.96987806-.0928455-.34650406-.363496-.61715454-.71-.71000002-.3465041-.09284548-.7162195.00621949-.9698781.25987808l-3 3c-.3921221.39212218-.3921221 1.02787781 0 1.41999996.3921222.39212216 1.0278778.39212218 1.42.00000004z"/></g></svg>