<svg id="Capa_1" enable-background="new 0 0 512 512" height="512" viewBox="0 0 512 512" width="512" fill="#6b6b6a" xmlns="http://www.w3.org/2000/svg"><g><circle cx="426" cy="185" r="15"/><circle cx="86" cy="185" r="15"/><path d="m384.314 318.241c19.877-19.151 35.258-42.567 44.907-68.241h26.779c19.299 0 35-15.701 35-35v-60c0-19.299-15.701-35-35-35h-26.784c-12.341-32.75-34.165-61.941-62.288-83.052-32.2-24.172-70.559-36.948-110.928-36.948s-78.727 12.776-110.928 36.948c-28.123 21.111-49.947 50.302-62.289 83.052h-26.783c-19.299 0-35 15.701-35 35v60c0 19.299 15.701 35 35 35h26.778c9.649 25.674 25.031 49.09 44.908 68.241 7.258 6.992 15.066 13.354 23.314 19.048v35.778l-64.113 14.794c-18.653 4.306-35.489 14.927-47.406 29.907-11.918 14.982-18.481 33.775-18.481 52.918v26.314c0 8.284 6.716 15 15 15h440c8.284 0 15-6.716 15-15v-26.313c0-19.144-6.563-37.937-18.48-52.918-11.918-14.98-28.754-25.602-47.406-29.906l-64.114-14.795v-35.779c8.249-5.693 16.057-12.056 23.314-19.048zm-276.476-87.648c-1.935-6.296-7.751-10.593-14.338-10.593h-37.5c-2.757 0-5-2.243-5-5v-60c0-2.757 2.243-5 5-5h37.5c6.587 0 12.403-4.297 14.338-10.593 20.113-65.44 79.655-109.407 148.162-109.407 68.508 0 128.049 43.967 148.161 109.406 1.935 6.297 7.751 10.594 14.338 10.594h37.501c2.757 0 5 2.243 5 5v60c0 2.757-2.243 5-5 5h-37.501c-6.587 0-12.403 4.297-14.338 10.594-12.94 42.103-43.764 76.767-83.179 95.101.002-.232.018-.462.018-.695 0-10.514-2.525-20.444-6.976-29.24 40.732-21.301 66.976-63.669 66.976-110.76 0-68.925-56.075-125-125-125s-125 56.075-125 125c0 47.092 26.243 89.459 66.976 110.76-4.451 8.797-6.976 18.726-6.976 29.24 0 .233.015.462.018.695-39.415-18.334-70.239-52.999-83.18-95.102zm148.162 129.407c-19.299 0-35-15.701-35-35s15.701-35 35-35 35 15.701 35 35-15.701 35-35 35zm37.807-87.823c-6.756-4.849-14.471-8.433-22.807-10.41v-16.767c0-8.284-6.716-15-15-15s-15 6.716-15 15v16.766c-8.336 1.978-16.052 5.561-22.807 10.411-34.517-14.94-57.193-49.014-57.193-87.177 0-52.383 42.617-95 95-95s95 42.617 95 95c0 38.163-22.676 72.237-57.193 87.177zm-124.434 127.439c6.806-1.571 11.627-7.631 11.627-14.616v-30.866c7.066 3.142 14.331 5.841 21.747 8.07 9.005 12.851 22.529 22.3 38.253 26.03v93.766h-90v-78.144zm-118.373 71.07c0-25.761 17.531-47.799 42.633-53.592l27.367-6.315v71.221h-70zm410 .001v11.313h-70v-71.22l27.367 6.315c25.102 5.792 42.633 27.83 42.633 53.592zm-118.373-71.07 18.373 4.24v78.143h-90v-93.766c15.723-3.73 29.248-13.18 38.253-26.03 7.417-2.229 14.681-4.928 21.747-8.07v30.867c0 6.985 4.821 13.045 11.627 14.616z"/></g></svg>